<svg width="10" height="7" viewBox="0 0 10 7" fill="none" xmlns="http://www.w3.org/2000/svg">
<path d="M9.68478 1.55977L5.30977 5.93477C5.26914 5.97545 5.22089 6.00772 5.16778 6.02974C5.11467 6.05176 5.05774 6.06309 5.00024 6.06309C4.94275 6.06309 4.88582 6.05176 4.83271 6.02974C4.7796 6.00772 4.73134 5.97545 4.69071 5.93477L0.315712 1.55977C0.233619 1.47768 0.1875 1.36634 0.1875 1.25024C0.1875 1.13415 0.233619 1.0228 0.315712 0.940712C0.397805 0.858619 0.509147 0.8125 0.625243 0.8125C0.74134 0.8125 0.852682 0.858619 0.934775 0.940712L5.00024 5.00673L9.06571 0.940712C9.10636 0.900064 9.15462 0.86782 9.20773 0.845821C9.26084 0.823822 9.31776 0.8125 9.37524 0.8125C9.43273 0.8125 9.48965 0.823822 9.54276 0.845821C9.59587 0.86782 9.64413 0.900064 9.68478 0.940712C9.72542 0.98136 9.75767 1.02962 9.77966 1.08273C9.80166 1.13584 9.81299 1.19276 9.81299 1.25024C9.81299 1.30773 9.80166 1.36465 9.77966 1.41776C9.75767 1.47087 9.72542 1.51913 9.68478 1.55977Z" fill="black"/>
</svg>
