<svg width="36" height="36" viewBox="0 0 36 36" fill="none" xmlns="http://www.w3.org/2000/svg">
<path d="M10 0.25H26C31.3848 0.25 35.75 4.61522 35.75 10V26C35.75 31.3848 31.3848 35.75 26 35.75H10C4.61522 35.75 0.25 31.3848 0.25 26V10C0.25 4.61522 4.61522 0.25 10 0.25Z" stroke="#CDCDCD" stroke-width="0.5"/>
<path d="M29.1853 17.6962C29.1525 17.6222 28.3584 15.8606 26.5931 14.0953C24.2409 11.7431 21.27 10.5 18 10.5C14.73 10.5 11.7591 11.7431 9.40687 14.0953C7.64155 15.8606 6.84374 17.625 6.81468 17.6962C6.77203 17.7922 6.75 17.896 6.75 18.0009C6.75 18.1059 6.77203 18.2097 6.81468 18.3056C6.84749 18.3797 7.64155 20.1403 9.40687 21.9056C11.7591 24.2569 14.73 25.5 18 25.5C21.27 25.5 24.2409 24.2569 26.5931 21.9056C28.3584 20.1403 29.1525 18.3797 29.1853 18.3056C29.2279 18.2097 29.25 18.1059 29.25 18.0009C29.25 17.896 29.2279 17.7922 29.1853 17.6962ZM18 24C15.1144 24 12.5934 22.9509 10.5066 20.8828C9.65028 20.0313 8.92179 19.0603 8.34374 18C8.92164 16.9396 9.65014 15.9686 10.5066 15.1172C12.5934 13.0491 15.1144 12 18 12C20.8856 12 23.4066 13.0491 25.4934 15.1172C26.3514 15.9684 27.0815 16.9394 27.6609 18C26.985 19.2619 24.0403 24 18 24ZM18 13.5C17.11 13.5 16.2399 13.7639 15.4999 14.2584C14.7599 14.7529 14.1831 15.4557 13.8425 16.2779C13.5019 17.1002 13.4128 18.005 13.5865 18.8779C13.7601 19.7508 14.1887 20.5526 14.818 21.182C15.4473 21.8113 16.2492 22.2399 17.1221 22.4135C17.995 22.5872 18.8998 22.4981 19.7221 22.1575C20.5443 21.8169 21.2471 21.2401 21.7416 20.5001C22.2361 19.76 22.5 18.89 22.5 18C22.4988 16.8069 22.0242 15.663 21.1806 14.8194C20.337 13.9757 19.1931 13.5012 18 13.5ZM18 21C17.4066 21 16.8266 20.8241 16.3333 20.4944C15.8399 20.1648 15.4554 19.6962 15.2284 19.1481C15.0013 18.5999 14.9419 17.9967 15.0576 17.4147C15.1734 16.8328 15.4591 16.2982 15.8787 15.8787C16.2982 15.4591 16.8328 15.1734 17.4147 15.0576C17.9967 14.9419 18.5999 15.0013 19.148 15.2284C19.6962 15.4554 20.1648 15.8399 20.4944 16.3333C20.824 16.8266 21 17.4067 21 18C21 18.7956 20.6839 19.5587 20.1213 20.1213C19.5587 20.6839 18.7956 21 18 21Z" fill="black"/>
</svg>
