<svg width="34" height="34" viewBox="0 0 34 34" fill="none" xmlns="http://www.w3.org/2000/svg">
<g filter="url(#filter0_d_22_2510)">
<rect x="4" y="4" width="24" height="24" rx="5" fill="#273E8E"/>
<rect x="4.25" y="4.25" width="23.5" height="23.5" rx="4.75" stroke="#CDCDCD" stroke-width="0.5"/>
<path d="M21.25 16C21.25 16.116 21.2039 16.2273 21.1219 16.3094C21.0398 16.3914 20.9285 16.4375 20.8125 16.4375H16.4375V20.8125C16.4375 20.9285 16.3914 21.0398 16.3094 21.1219C16.2273 21.2039 16.116 21.25 16 21.25C15.884 21.25 15.7727 21.2039 15.6906 21.1219C15.6086 21.0398 15.5625 20.9285 15.5625 20.8125V16.4375H11.1875C11.0715 16.4375 10.9602 16.3914 10.8781 16.3094C10.7961 16.2273 10.75 16.116 10.75 16C10.75 15.884 10.7961 15.7727 10.8781 15.6906C10.9602 15.6086 11.0715 15.5625 11.1875 15.5625H15.5625V11.1875C15.5625 11.0715 15.6086 10.9602 15.6906 10.8781C15.7727 10.7961 15.884 10.75 16 10.75C16.116 10.75 16.2273 10.7961 16.3094 10.8781C16.3914 10.9602 16.4375 11.0715 16.4375 11.1875V15.5625H20.8125C20.9285 15.5625 21.0398 15.6086 21.1219 15.6906C21.2039 15.7727 21.25 15.884 21.25 16Z" fill="white"/>
</g>
<defs>
<filter id="filter0_d_22_2510" x="0" y="0" width="34" height="34" filterUnits="userSpaceOnUse" color-interpolation-filters="sRGB">
<feFlood flood-opacity="0" result="BackgroundImageFix"/>
<feColorMatrix in="SourceAlpha" type="matrix" values="0 0 0 0 0 0 0 0 0 0 0 0 0 0 0 0 0 0 127 0" result="hardAlpha"/>
<feOffset dx="1" dy="1"/>
<feGaussianBlur stdDeviation="2.5"/>
<feComposite in2="hardAlpha" operator="out"/>
<feColorMatrix type="matrix" values="0 0 0 0 0.542308 0 0 0 0 0.542308 0 0 0 0 0.542308 0 0 0 0.25 0"/>
<feBlend mode="normal" in2="BackgroundImageFix" result="effect1_dropShadow_22_2510"/>
<feBlend mode="normal" in="SourceGraphic" in2="effect1_dropShadow_22_2510" result="shape"/>
</filter>
</defs>
</svg>
