<svg width="36" height="36" viewBox="0 0 36 36" fill="none" xmlns="http://www.w3.org/2000/svg">
<path d="M10 0.25H26C31.3848 0.25 35.75 4.61522 35.75 10V26C35.75 31.3848 31.3848 35.75 26 35.75H10C4.61522 35.75 0.25 31.3848 0.25 26V10C0.25 4.61522 4.61522 0.25 10 0.25Z" stroke="#CDCDCD" stroke-width="0.5"/>
<path d="M18 9C17.175 9 16.5 9.675 16.5 10.5C16.5 11.325 17.175 12 18 12C18.825 12 19.5 11.325 19.5 10.5C19.5 9.675 18.825 9 18 9ZM18 24C17.175 24 16.5 24.675 16.5 25.5C16.5 26.325 17.175 27 18 27C18.825 27 19.5 26.325 19.5 25.5C19.5 24.675 18.825 24 18 24ZM18 16.5C17.175 16.5 16.5 17.175 16.5 18C16.5 18.825 17.175 19.5 18 19.5C18.825 19.5 19.5 18.825 19.5 18C19.5 17.175 18.825 16.5 18 16.5Z" fill="black"/>
</svg>
