<svg width="16" height="16" viewBox="0 0 16 16" fill="none" xmlns="http://www.w3.org/2000/svg">
<path d="M13.4859 7.88312C13.467 7.80298 13.4286 7.72876 13.374 7.66705C13.3195 7.60534 13.2506 7.55804 13.1734 7.52937L9.57279 6.17875L10.489 1.59562C10.5098 1.48913 10.4953 1.37879 10.4479 1.28123C10.4004 1.18368 10.3225 1.10421 10.2259 1.05482C10.1293 1.00543 10.0193 0.988797 9.91239 1.00743C9.80552 1.02606 9.7076 1.07896 9.63342 1.15812L2.63342 8.65812C2.57657 8.71803 2.53544 8.79108 2.51371 8.87076C2.49198 8.95044 2.49033 9.03427 2.5089 9.11474C2.52747 9.19522 2.56569 9.26984 2.62013 9.33194C2.67458 9.39404 2.74356 9.44169 2.82092 9.47062L6.42279 10.8212L5.50904 15.3994C5.4883 15.5059 5.50275 15.6162 5.55021 15.7138C5.59768 15.8113 5.67559 15.8908 5.77219 15.9402C5.86878 15.9896 5.97882 16.0062 6.08569 15.9876C6.19257 15.9689 6.29049 15.916 6.36467 15.8369L13.3647 8.33687C13.4205 8.27695 13.4607 8.20424 13.4819 8.12512C13.503 8.046 13.5044 7.9629 13.4859 7.88312ZM6.83467 13.8725L7.48904 10.5987C7.51246 10.4826 7.49391 10.362 7.43668 10.2583C7.37945 10.1546 7.28726 10.0746 7.17654 10.0325L3.87404 8.79187L9.16279 3.12562L8.50904 6.39937C8.48562 6.51548 8.50418 6.63613 8.56141 6.73983C8.61864 6.84353 8.71083 6.92354 8.82154 6.96562L12.1215 8.20312L6.83467 13.8725Z" fill="#273E8E"/>
</svg>
